<?xml version="1.0" standalone="no"?><!DOCTYPE svg PUBLIC "-//W3C//DTD SVG 1.1//EN" "http://www.w3.org/Graphics/SVG/1.1/DTD/svg11.dtd"><svg width="100%" height="100%" viewBox="0 0 479 580" version="1.1" xmlns="http://www.w3.org/2000/svg" xmlns:xlink="http://www.w3.org/1999/xlink" xml:space="preserve" style="fill-rule:evenodd;clip-rule:evenodd;stroke-linecap:round;stroke-linejoin:round;stroke-miterlimit:1.41421;"><g id="Layer2"><path d="M236.744,255.249c0,0 66.744,53.563 146.806,105.115c0,0 28.396,-224.516 36.437,-253.629c17.541,-63.503 -211.7,-100.675 -211.7,-100.675c0,0 24.486,126.736 28.457,249.189Z" style="fill:#d9d9d9;stroke-width:0.9px;stroke:#000;"/><path d="M219.779,262.051c0,0 80.342,34.171 160.404,85.723c0,0 28.277,-244.249 26.773,-246.303c-14.564,-19.891 -57.972,-37.696 -102.061,-52.163c-9.365,-3.073 -23.513,2.09 -32.67,-0.67c-45.745,-13.787 -80.765,-31.602 -80.903,-35.776c0,0 24.486,126.736 28.457,249.189Z" style="fill:url(#_Radial1);stroke-width:0.9px;stroke:#000;"/><path d="M213.625,266.882c0,0 88.042,41.491 168.104,93.044l7.767,-242.318c-14.114,-16.471 -47.893,-36.3 -92.257,-45.392c-35.787,-7.334 -68.84,-38.649 -112.07,-54.523c0,0 24.486,126.736 28.456,249.189Z" style="fill:#ccc;stroke-width:0.9px;stroke:#000;"/><path d="M200.357,271.195c0,0 88.043,41.491 168.105,93.043l7.767,-242.317l-204.328,-99.915c0,0 24.486,126.736 28.456,249.189Z" style="fill:#ccc;stroke-width:0.9px;stroke:#000;"/><path d="M188.117,281.229c0,0 88.043,41.491 168.105,93.043l7.767,-242.317l-204.328,-99.915c0,0 24.486,126.736 28.456,249.189Z" style="fill:#ccc;stroke-width:0.9px;stroke:#000;"/><path d="M181.357,292.601c0,0 88.997,39.402 170.253,89.051c-8.264,-112.793 -18.094,-235.129 -1.178,-240.908c0,0 -100.182,-38.283 -131.134,-66.177c-19.415,-17.497 -83.903,-41.778 -83.903,-41.778c0,0 39.104,137.487 45.962,259.812Z" style="fill:#d9d9d9;stroke-width:0.9px;stroke:#000;"/><path d="M158.66,299.801c0,0 88.997,39.402 170.253,89.051l2.047,-242.434l-206.628,-95.065c0,0 27.469,126.123 34.328,248.448Z" style="fill:#ccc;stroke-width:0.9px;stroke:#000;"/><path d="M152.622,304.776c0,0 88.997,39.402 170.253,89.051l2.047,-242.433l-206.628,-95.066c0,0 27.469,126.123 34.328,248.448Z" style="fill:#ccc;stroke-width:0.9px;stroke:#000;"/><path d="M139.46,309.401c0,0 88.997,39.402 170.253,89.051l7.179,-227.033l-211.76,-110.466c0,0 27.469,126.123 34.328,248.448Z" style="fill:#ccc;stroke-width:0.9px;stroke:#000;"/><path d="M138.042,311.824c0,0 93.716,47.201 179.428,106.342l-0.469,-284.486l-217.624,-113.794c0,0 30.156,148.309 38.665,291.938Z" style="fill:#b39e7b;stroke-width:0.9px;stroke:#000;"/><path d="M139.817,275.174c0,0 88.835,37.509 169.896,84.878l2.881,-232.674c-27.114,-13.087 -47.44,-20.151 -71.214,-34.122c-117.544,-69.079 -135.568,-60.712 -135.026,-56.402c0,0 27.027,120.947 33.463,238.32Z" style="fill:#e6e6e6;stroke-width:0.9px;stroke:#000;"/><path d="M130.842,316.624c0,0 93.716,47.201 179.428,106.342l-0.469,-284.486l-217.624,-113.794c0,0 30.156,148.309 38.665,291.938Z" style="fill:#ebe2b1;stroke-width:0.9px;stroke:#000;"/><path d="M127.46,319.721c0,0 88.997,39.402 170.253,89.051l2.047,-242.434c-70.614,-21.667 -139.102,-55.593 -206.628,-95.065c0,0 27.469,126.123 34.328,248.448Z" style="fill:#ccc;stroke-width:0.9px;stroke:#000;"/><path d="M110.66,331.001c0,0 88.997,39.402 170.253,89.051l2.047,-242.434l-206.628,-95.065c0,0 27.469,126.123 34.328,248.448Z" style="fill:#d9d9d9;stroke-width:0.9px;stroke:#000;"/><path d="M93.86,338.201c0,0 88.997,39.402 170.253,89.051l2.047,-242.434c-27.17,-13.734 -47.527,-21.167 -71.358,-35.81c-117.828,-72.402 -135.828,-63.749 -135.27,-59.255c0,0 27.469,126.123 34.328,248.448Z" style="fill:#e6e6e6;stroke-width:0.9px;stroke:#000;"/><path d="M87.822,343.176c0,0 88.997,39.402 170.253,89.051l2.047,-242.433c-65.227,-18.684 -135.962,-57 -206.628,-95.066c0,0 27.469,126.123 34.328,248.448Z" style="fill:#e6e6e6;stroke-width:0.9px;stroke:#000;"/><path d="M85.488,366.642c0,0 65.394,22.445 150.94,61.969l-7.489,-242.727l-81.397,-25.815c-38.465,-18.984 -81.477,-25.724 -128.97,-37.94c0,0 43.713,122.865 66.916,244.513Z" style="fill:#e6e6e6;stroke-width:0.9px;stroke:#000;"/><path d="M62.66,358.121c0,0 88.997,39.402 170.253,89.051l2.047,-242.434c-44.848,-25.557 -72.521,-20.804 -160.325,-72.835c-14.47,-8.574 -30.625,-14.567 -46.303,-22.23c0,0 27.469,126.123 34.328,248.448Z" style="fill:#ebebeb;stroke-width:0.9px;stroke:#000;"/><path d="M207.275,334.398c1.388,-3.802 -0.572,-8.017 -4.375,-9.405l-105.763,-38.611c-3.803,-1.388 -8.017,0.573 -9.406,4.375l-5.03,13.781c-1.388,3.802 0.572,8.017 4.375,9.405l105.763,38.611c3.803,1.388 8.017,-0.573 9.405,-4.375l5.031,-13.781Z" style="fill:#b39e7b;"/></g><g id="Layer3"><path d="M228.635,384.08l8.086,-112.643l175.363,-123.142l-24.472,166.298l-158.977,69.487Z" style="fill:url(#_Linear2);"/><path d="M58.127,302.354l-10.165,-93.412l185.684,70.294l0.23,86.155l-175.749,-63.037Z" style="fill:url(#_Linear3);"/></g><g id="Layer1"><path d="M72.401,475.654c0,0 85.626,37.91 163.804,85.678l1.97,-233.251l-198.802,-91.464c0,0 26.429,121.345 33.028,239.037Z" style="fill:#337bcc;stroke-width:1px;stroke:#000;"/><path d="M235.723,561.665c0,0 67.226,-85.634 138.83,-144.057l38.223,-229.487l-174.459,139.026l-2.594,234.518Z" style="fill:#00526c;stroke-width:1px;stroke:#000;"/></g><g id="Layer4"><path d="M180.585,322.272l-81.042,-35.742l4.703,29.472l76.274,34.113l0.065,-27.843Z" style="fill:url(#_Linear4);stroke-width:1px;stroke:#000;"/><path d="M271.19,492.276c12.084,-27.352 77.652,-85.041 95.8,-92.077c1.962,-0.761 0.161,5.699 -1.673,6.779c-18.682,10.993 -80.592,72.303 -92.746,93.351c-1.299,2.25 -2.444,-5.646 -1.381,-8.053Z" style="fill:#0f143c;stroke-width:1px;stroke:#000;"/><path d="M273.254,408.808c-2.695,2.563 -0.211,13.204 2.656,10.836c17.791,-14.695 104.528,-97.202 104.085,-99.008c-0.443,-1.806 -89.394,71.67 -106.741,88.172Z" style="fill:#000;fill-opacity:0.369424;"/><path d="M272.126,406.986c18.048,-16.953 91.775,-79.195 109.731,-93.67c1.842,-1.486 -0.268,5.194 -1.994,6.815c-18.048,16.952 -88.34,80.425 -106.296,94.901c-2.121,1.71 -3.427,-6.181 -1.441,-8.046Z" style="fill:#036;stroke-width:1px;stroke:#000;"/></g><defs><radialGradient id="_Radial1" cx="0" cy="0" r="1" gradientUnits="userSpaceOnUse" gradientTransform="matrix(80.033,-81.5707,81.5707,80.033,298.767,166.391)"><stop offset="0%" style="stop-color:#0d0d0d;stop-opacity:1"/><stop offset="100%" style="stop-color:#e4e4e4;stop-opacity:1"/></radialGradient><linearGradient id="_Linear2" x1="0" y1="0" x2="1" y2="0" gradientUnits="userSpaceOnUse" gradientTransform="matrix(36.1116,46.6686,-46.6686,36.1116,271.963,244.331)"><stop offset="0%" style="stop-color:#fff;stop-opacity:0"/><stop offset="100%" style="stop-color:#000;stop-opacity:0.576471"/></linearGradient><linearGradient id="_Linear3" x1="0" y1="0" x2="1" y2="0" gradientUnits="userSpaceOnUse" gradientTransform="matrix(-18.96,50.706,-50.706,-18.96,159.798,251.265)"><stop offset="0%" style="stop-color:#fff;stop-opacity:0"/><stop offset="100%" style="stop-color:#000;stop-opacity:0.576471"/></linearGradient><linearGradient id="_Linear4" x1="0" y1="0" x2="1" y2="0" gradientUnits="userSpaceOnUse" gradientTransform="matrix(13.3595,-23.3259,71.9568,39.0736,135.726,322.642)"><stop offset="0%" style="stop-color:#050505;stop-opacity:1"/><stop offset="100%" style="stop-color:#aeaeae;stop-opacity:1"/></linearGradient></defs></svg>