<?xml version="1.0" standalone="no"?><!DOCTYPE svg PUBLIC "-//W3C//DTD SVG 1.1//EN" "http://www.w3.org/Graphics/SVG/1.1/DTD/svg11.dtd"><svg width="100%" height="100%" viewBox="0 0 440 440" version="1.1" xmlns="http://www.w3.org/2000/svg" xmlns:xlink="http://www.w3.org/1999/xlink" xml:space="preserve" style="fill-rule:evenodd;clip-rule:evenodd;stroke-linecap:round;stroke-linejoin:round;stroke-miterlimit:1.41421;"><g id="Layer2"><path d="M237.224,209.39c0,0 66.744,37.204 146.806,73.012c0,0 28.396,-155.948 36.437,-176.169c17.541,-44.109 -211.7,-69.929 -211.7,-69.929c0,0 24.486,88.031 28.457,173.086Z" style="fill:#d9d9d9;stroke-width:0.9px;stroke:#000;"/><path d="M220.259,214.114c0,0 80.342,23.735 160.404,59.543c0,0 28.277,-169.654 26.773,-171.081c-14.564,-13.816 -57.972,-26.183 -102.061,-36.232c-9.365,-2.135 -23.513,1.452 -32.67,-0.465c-45.745,-9.577 -80.765,-21.951 -80.903,-24.85c0,0 24.486,88.03 28.457,173.085Z" style="fill:url(#_Radial1);stroke-width:0.9px;stroke:#000;"/><path d="M214.105,217.47c0,0 88.042,28.82 168.104,64.628l7.767,-168.313c-14.114,-11.441 -47.893,-25.214 -92.257,-31.529c-35.787,-5.094 -68.84,-26.846 -112.07,-37.871c0,0 24.486,88.03 28.456,173.085Z" style="fill:#ccc;stroke-width:0.9px;stroke:#000;"/><path d="M200.837,220.466c0,0 88.043,28.819 168.105,64.627l7.767,-168.313l-204.328,-69.4c0,0 24.486,88.031 28.456,173.086Z" style="fill:#ccc;stroke-width:0.9px;stroke:#000;"/><path d="M188.597,227.435c0,0 88.043,28.82 168.105,64.628l7.767,-168.313l-204.328,-69.4c0,0 24.486,88.03 28.456,173.085Z" style="fill:#ccc;stroke-width:0.9px;stroke:#000;"/><path d="M181.837,235.334c0,0 88.997,27.369 170.253,61.854c-8.264,-78.345 -18.094,-163.319 -1.178,-167.333c0,0 -100.182,-26.591 -131.134,-45.966c-19.415,-12.153 -83.903,-29.019 -83.903,-29.019c0,0 39.104,95.498 45.962,180.464Z" style="fill:#d9d9d9;stroke-width:0.9px;stroke:#000;"/><path d="M159.14,240.335c0,0 88.997,27.369 170.253,61.855l2.047,-168.394l-206.628,-66.032c0,0 27.469,87.605 34.328,172.571Z" style="fill:#ccc;stroke-width:0.9px;stroke:#000;"/><path d="M153.102,243.791c0,0 88.997,27.369 170.253,61.854l2.047,-168.393l-206.628,-66.032c0,0 27.469,87.605 34.328,172.571Z" style="fill:#ccc;stroke-width:0.9px;stroke:#000;"/><path d="M139.94,247.003c0,0 88.997,27.369 170.253,61.855l7.179,-157.696l-211.76,-76.73c0,0 27.469,87.605 34.328,172.571Z" style="fill:#ccc;stroke-width:0.9px;stroke:#000;"/><path d="M138.522,248.686c0,0 93.716,32.786 179.428,73.866l-0.469,-197.604l-217.624,-79.04c0,0 30.156,103.014 38.665,202.778Z" style="fill:#b39e7b;stroke-width:0.9px;stroke:#000;"/><path d="M140.297,223.23c0,0 88.835,26.053 169.896,58.955l2.881,-161.614c-27.114,-9.09 -47.44,-13.996 -71.214,-23.701c-117.544,-47.982 -135.568,-42.17 -135.026,-39.176c0,0 27.027,84.009 33.463,165.536Z" style="fill:#e6e6e6;stroke-width:0.9px;stroke:#000;"/><path d="M131.322,252.02c0,0 93.716,32.786 179.428,73.866l-0.469,-197.604l-217.624,-79.04c0,0 30.156,103.014 38.665,202.778Z" style="fill:#ebe2b1;stroke-width:0.9px;stroke:#000;"/><path d="M127.94,254.171c0,0 88.997,27.369 170.253,61.855l2.047,-168.393c-70.614,-15.05 -139.102,-38.615 -206.628,-66.032c0,0 27.469,87.604 34.328,172.57Z" style="fill:#ccc;stroke-width:0.9px;stroke:#000;"/><path d="M111.14,262.007c0,0 88.997,27.368 170.253,61.854l2.047,-168.393l-206.628,-66.032c0,0 27.469,87.604 34.328,172.571Z" style="fill:#d9d9d9;stroke-width:0.9px;stroke:#000;"/><path d="M94.34,267.008c0,0 88.997,27.368 170.253,61.854l2.047,-168.393c-27.17,-9.54 -47.527,-14.703 -71.358,-24.874c-117.828,-50.29 -135.828,-44.279 -135.27,-41.158c0,0 27.469,87.604 34.328,172.571Z" style="fill:#e6e6e6;stroke-width:0.9px;stroke:#000;"/><path d="M88.302,270.463c0,0 88.997,27.369 170.253,61.855l2.047,-168.393c-65.227,-12.978 -135.962,-39.592 -206.628,-66.032c0,0 27.469,87.604 34.328,172.57Z" style="fill:#e6e6e6;stroke-width:0.9px;stroke:#000;"/><path d="M85.968,286.763c0,0 65.394,15.59 150.94,43.043l-7.489,-168.597l-81.397,-17.931c-38.465,-13.186 -81.477,-17.867 -128.97,-26.353c0,0 43.713,85.341 66.916,169.838Z" style="fill:#e6e6e6;stroke-width:0.9px;stroke:#000;"/><path d="M63.14,280.844c0,0 88.997,27.369 170.253,61.854l2.047,-168.393c-44.848,-17.752 -72.521,-14.45 -160.325,-50.591c-14.47,-5.955 -30.625,-10.118 -46.303,-15.441c0,0 27.469,87.605 34.328,172.571Z" style="fill:#ebebeb;stroke-width:0.9px;stroke:#000;"/><path d="M207.755,264.367c1.388,-2.642 0.232,-5.365 -2.581,-6.079l-109.351,-27.728c-2.813,-0.713 -6.223,0.852 -7.612,3.494l-5.03,9.571c-1.388,2.642 -0.232,5.365 2.58,6.079l109.352,27.728c2.812,0.713 6.223,-0.852 7.611,-3.494l5.031,-9.571Z" style="fill:#b39e7b;"/></g><g id="Layer3"><path d="M227.868,322.381l8.292,-96.024l179.816,-104.975l-28.242,144.137l-159.866,56.862Z" style="fill:url(#_Linear2);"/><path d="M58.607,242.109l-10.165,-64.884l185.684,48.826l0.23,59.843l-175.749,-43.785Z" style="fill:url(#_Linear3);"/></g><g id="Layer1"><path d="M72.881,362.482c0,0 85.626,26.332 163.804,59.511l1.97,-162.014l-198.802,-63.531c0,0 26.429,84.286 33.028,166.034Z" style="fill:#337bcc;stroke-width:1px;stroke:#000;"/><path d="M236.203,422.225c0,0 67.226,-59.481 138.83,-100.061l38.223,-159.401l-174.459,96.567l-2.594,162.895Z" style="fill:#00526c;stroke-width:1px;stroke:#000;"/></g><g id="Layer4"><path d="M181.065,255.944l-81.042,-24.826l4.703,20.471l76.274,23.695l0.065,-19.34Z" style="fill:url(#_Linear4);stroke-width:1px;stroke:#000;"/><path d="M271.67,374.028c12.084,-18.999 77.652,-59.069 95.8,-63.956c1.962,-0.529 0.161,3.958 -1.673,4.708c-18.682,7.636 -80.592,50.221 -92.746,64.841c-1.299,1.563 -2.444,-3.921 -1.381,-5.593Z" style="fill:#0f143c;stroke-width:1px;stroke:#000;"/><path d="M273.734,316.051c-2.695,1.78 -0.211,9.172 2.656,7.527c17.791,-10.208 104.528,-67.516 104.085,-68.77c-0.443,-1.255 -89.394,49.781 -106.741,61.243Z" style="fill:#000;fill-opacity:0.369424;"/><path d="M272.606,314.785c18.048,-11.775 91.775,-55.008 109.731,-65.062c1.842,-1.032 -0.268,3.608 -1.994,4.733c-18.048,11.775 -88.34,55.863 -106.296,65.918c-2.121,1.188 -3.427,-4.293 -1.441,-5.589Z" style="fill:#036;stroke-width:1px;stroke:#000;"/></g><defs><radialGradient id="_Radial1" cx="0" cy="0" r="1" gradientUnits="userSpaceOnUse" gradientTransform="matrix(80.033,-56.6587,81.5707,55.5905,299.247,147.67)"><stop offset="0%" style="stop-color:#0d0d0d;stop-opacity:1"/><stop offset="100%" style="stop-color:#e4e4e4;stop-opacity:1"/></radialGradient><linearGradient id="_Linear2" x1="0" y1="0" x2="1" y2="0" gradientUnits="userSpaceOnUse" gradientTransform="matrix(15.7785,28.6673,-28.7028,15.7589,294.324,191.524)"><stop offset="0%" style="stop-color:#fff;stop-opacity:0"/><stop offset="100%" style="stop-color:#000;stop-opacity:0.576471"/></linearGradient><linearGradient id="_Linear3" x1="0" y1="0" x2="1" y2="0" gradientUnits="userSpaceOnUse" gradientTransform="matrix(-7.1624,23.8239,-23.8239,-7.1624,160.278,206.622)"><stop offset="0%" style="stop-color:#fff;stop-opacity:0"/><stop offset="100%" style="stop-color:#000;stop-opacity:0.576471"/></linearGradient><linearGradient id="_Linear4" x1="0" y1="0" x2="1" y2="0" gradientUnits="userSpaceOnUse" gradientTransform="matrix(11.2713,-52.0798,52.0798,11.2713,131.835,284.614)"><stop offset="0%" style="stop-color:#050505;stop-opacity:1"/><stop offset="100%" style="stop-color:#aeaeae;stop-opacity:1"/></linearGradient></defs></svg>